<svg width="18" height="18" viewBox="0 0 18 18" fill="none" xmlns="http://www.w3.org/2000/svg">
<path d="M9.17715 18.0004C9.11755 18.0004 9.05795 18.0004 8.99794 18.0001C7.58702 18.0035 6.28336 17.9677 5.01553 17.8905C3.85318 17.8198 2.79218 17.4181 1.94705 16.729C1.13159 16.064 0.574722 15.1649 0.291962 14.057C0.045868 13.0924 0.0328217 12.1455 0.0203247 11.2296C0.011261 10.5725 0.00192261 9.79387 0 9.00203C0.00192261 8.20689 0.011261 7.42823 0.0203247 6.77111C0.0328217 5.8554 0.045868 4.90852 0.291962 3.94378C0.574722 2.83581 1.13159 1.93672 1.94705 1.27177C2.79218 0.582652 3.85318 0.180965 5.01567 0.11024C6.28349 0.0331984 7.58743 -0.00278182 9.00137 0.000651407C10.4127 -0.00236983 11.716 0.0331984 12.9838 0.11024C14.1461 0.180965 15.2071 0.582652 16.0523 1.27177C16.8679 1.93672 17.4246 2.83581 17.7074 3.94378C17.9534 4.90838 17.9665 5.8554 17.979 6.77111C17.9881 7.42823 17.9975 8.20689 17.9993 8.99873V9.00203C17.9975 9.79387 17.9881 10.5725 17.979 11.2296C17.9665 12.1454 17.9536 13.0922 17.7074 14.057C17.4246 15.1649 16.8679 16.064 16.0523 16.729C15.2071 17.4181 14.1461 17.8198 12.9838 17.8905C11.7697 17.9644 10.5224 18.0004 9.17715 18.0004ZM8.99794 16.5939C10.3859 16.5971 11.6603 16.5621 12.8984 16.4869C13.7773 16.4335 14.5393 16.1482 15.1636 15.6391C15.7407 15.1685 16.1381 14.5192 16.3448 13.7093C16.5497 12.9063 16.5615 12.0441 16.5729 11.2104C16.5818 10.5577 16.5911 9.78453 16.5931 9.00038C16.5911 8.21609 16.5818 7.44307 16.5729 6.79034C16.5615 5.95662 16.5497 5.09446 16.3448 4.29136C16.1381 3.4814 15.7407 2.8321 15.1636 2.36148C14.5393 1.85253 13.7773 1.5673 12.8984 1.51388C11.6603 1.43849 10.3859 1.40374 9.00124 1.40676C7.61353 1.40347 6.33897 1.43849 5.10095 1.51388C4.22205 1.5673 3.46001 1.85253 2.83571 2.36148C2.25865 2.8321 1.86122 3.4814 1.65454 4.29136C1.44965 5.09446 1.43784 5.95648 1.42644 6.79034C1.41751 7.44361 1.40817 8.21719 1.40625 9.00203C1.40817 9.78343 1.41751 10.5571 1.42644 11.2104C1.43784 12.0441 1.44965 12.9063 1.65454 13.7093C1.86122 14.5192 2.25865 15.1685 2.83571 15.6391C3.46001 16.1481 4.22205 16.4333 5.10095 16.4867C6.33897 16.5621 7.6138 16.5973 8.99794 16.5939ZM8.96443 13.3949C6.5414 13.3949 4.5699 11.4235 4.5699 9.00038C4.5699 6.57721 6.5414 4.60585 8.96443 4.60585C11.3876 4.60585 13.359 6.57721 13.359 9.00038C13.359 11.4235 11.3876 13.3949 8.96443 13.3949ZM8.96443 6.0121C7.31676 6.0121 5.97615 7.3527 5.97615 9.00038C5.97615 10.6481 7.31676 11.9887 8.96443 11.9887C10.6122 11.9887 11.9527 10.6481 11.9527 9.00038C11.9527 7.3527 10.6122 6.0121 8.96443 6.0121ZM13.8512 3.1996C13.2687 3.1996 12.7965 3.67173 12.7965 4.25428C12.7965 4.83683 13.2687 5.30897 13.8512 5.30897C14.4337 5.30897 14.9058 4.83683 14.9058 4.25428C14.9058 3.67173 14.4337 3.1996 13.8512 3.1996Z" fill="#323941"/>
</svg>
